<svg width="27" height="20" viewBox="0 0 27 20" fill="none" xmlns="http://www.w3.org/2000/svg">
<path fill-rule="evenodd" clip-rule="evenodd" d="M22.994 11.7407L23.994 6.32067C24.1344 5.54033 24.1002 4.7386 23.894 3.97304C23.6877 3.20748 23.3145 2.49708 22.8011 1.89288C22.2877 1.28867 21.6469 0.805648 20.9247 0.478486C20.2025 0.151325 19.4168 -0.0118534 18.624 0.000669995H7.11404C5.87053 -0.000370508 4.66564 0.432603 3.70721 1.2249C2.74878 2.01721 2.09691 3.11915 1.86404 4.34067L0.0740389 14.1007C-0.0477659 14.778 -0.0190049 15.4739 0.158281 16.1389C0.335567 16.8039 0.657033 17.4217 1.09987 17.9485C1.54271 18.4753 2.09606 18.8983 2.72067 19.1872C3.34527 19.4762 4.02583 19.6242 4.71404 19.6207H26.484L22.994 11.7407ZM4.75404 16.7407C4.49028 16.7459 4.2287 16.6919 3.98866 16.5824C3.74862 16.473 3.53626 16.311 3.36727 16.1084C3.19829 15.9058 3.07701 15.6678 3.0124 15.412C2.9478 15.1562 2.94152 14.8892 2.99404 14.6307L4.76404 4.87067C4.86671 4.32252 5.15783 3.82754 5.587 3.47142C6.01617 3.1153 6.55636 2.92047 7.11404 2.92067H18.624C18.9834 2.91772 19.339 2.9942 19.6654 3.14463C19.9918 3.29507 20.2809 3.51575 20.5121 3.79089C20.7433 4.06604 20.9109 4.38887 21.0028 4.7363C21.0948 5.08372 21.1089 5.44717 21.044 5.80067L19.884 12.1007L21.994 16.7007L4.75404 16.7407Z" fill="#F24942"/>
<path fill-rule="evenodd" clip-rule="evenodd" d="M7.92423 9.72067H7.93423L7.58423 11.6107H11.2042L11.5342 9.72067H15.7742L16.2042 7.36067H8.35423L7.92423 9.72067Z" fill="#F24942"/>
</svg>
