<svg width="160" height="24" viewBox="0 0 160 24" fill="none" xmlns="http://www.w3.org/2000/svg">
<g clip-path="url(#clip0_7_3)">
<path fill-rule="evenodd" clip-rule="evenodd" d="M22.9999 13.74L23.9999 8.32C24.1403 7.53966 24.1061 6.73793 23.8998 5.97237C23.6936 5.20681 23.3204 4.49642 22.807 3.89221C22.2936 3.28801 21.6528 2.80498 20.9306 2.47782C20.2084 2.15066 19.4227 1.98748 18.6299 2H7.1199C5.87638 1.99896 4.67149 2.43193 3.71307 3.22423C2.75464 4.01654 2.10277 5.11848 1.8699 6.34L0.0798983 16.1C-0.0419065 16.7774 -0.0131456 17.4732 0.16414 18.1382C0.341426 18.8032 0.662892 19.421 1.10573 19.9479C1.54857 20.4747 2.10192 20.8976 2.72653 21.1866C3.35113 21.4755 4.03169 21.6235 4.7199 21.62H26.4899L22.9999 13.74ZM4.7599 18.74C4.49614 18.7453 4.23456 18.6912 3.99452 18.5818C3.75448 18.4723 3.54211 18.3103 3.37313 18.1077C3.20415 17.9051 3.08287 17.6671 3.01826 17.4114C2.95366 17.1556 2.94738 16.8885 2.9999 16.63L4.7699 6.87C4.87257 6.32185 5.16369 5.82687 5.59286 5.47075C6.02203 5.11463 6.56222 4.9198 7.1199 4.92H18.6299C18.9893 4.91705 19.3449 4.99353 19.6713 5.14396C19.9976 5.2944 20.2868 5.51508 20.518 5.79023C20.7492 6.06537 20.9167 6.3882 21.0087 6.73563C21.1006 7.08305 21.1147 7.4465 21.0499 7.8L19.8899 14.1L21.9999 18.7L4.7599 18.74Z" fill="#F24942"/>
<path fill-rule="evenodd" clip-rule="evenodd" d="M7.93009 11.72H7.94009L7.59009 13.61H11.2101L11.5401 11.72H15.7801L16.2101 9.36H8.36009L7.93009 11.72Z" fill="#F24942"/>
<path d="M91.7 17.54V9.87H93.44L93.61 10.87C93.8667 10.4997 94.21 10.1976 94.61 9.99C95.0404 9.77374 95.5187 9.67051 96 9.69C96.5072 9.65245 97.0145 9.76165 97.4613 10.0046C97.9082 10.2475 98.2757 10.6139 98.52 11.06C98.8016 10.6401 99.183 10.2965 99.63 10.06C100.105 9.81117 100.634 9.68403 101.17 9.69C101.596 9.66545 102.023 9.73214 102.421 9.88562C102.819 10.0391 103.18 10.2758 103.48 10.58C104.06 11.3288 104.345 12.2649 104.28 13.21V17.54H102.28V13.4C102.313 12.8663 102.18 12.3355 101.9 11.88C101.765 11.7034 101.589 11.5633 101.386 11.4724C101.183 11.3816 100.961 11.343 100.74 11.36C100.493 11.3506 100.248 11.3979 100.022 11.4985C99.797 11.5991 99.5977 11.7501 99.44 11.94C99.1095 12.42 98.9541 12.999 99 13.58V17.58H97V13.4C97.0326 12.8663 96.8999 12.3355 96.62 11.88C96.4789 11.703 96.2968 11.5631 96.0894 11.4725C95.882 11.3819 95.6557 11.3432 95.43 11.36C95.185 11.3521 94.9414 11.4002 94.7178 11.5008C94.4943 11.6013 94.2966 11.7515 94.14 11.94C93.8033 12.4182 93.6377 12.996 93.67 13.58V17.58L91.7 17.54Z" fill="white"/>
<path d="M85.5699 17.54V9.87H87.3299L87.5199 11.31C87.799 10.8075 88.2102 10.3909 88.709 10.1053C89.2079 9.81975 89.7753 9.67613 90.3499 9.69V11.77H89.7899C89.3932 11.7626 88.9989 11.834 88.6299 11.98C88.2903 12.1085 88.0069 12.3529 87.8299 12.67C87.6202 13.0985 87.5238 13.5736 87.5499 14.05V17.54H85.5699Z" fill="white"/>
<path d="M79.88 17.72C79.1802 17.7279 78.4906 17.552 77.88 17.21C77.299 16.8737 76.8163 16.391 76.48 15.81C76.1315 15.1658 75.9558 14.4423 75.97 13.71C75.9516 12.9792 76.1313 12.257 76.49 11.62C76.8208 11.0296 77.3044 10.5391 77.89 10.2C78.5006 9.85797 79.1902 9.68211 79.89 9.69C80.5908 9.67378 81.2826 9.85018 81.89 10.2C82.4838 10.5319 82.9724 11.0239 83.3 11.62C83.6588 12.257 83.8385 12.9792 83.82 13.71C83.8359 14.4437 83.6564 15.1685 83.3 15.81C82.9657 16.3959 82.4783 16.8798 81.89 17.21C81.2778 17.5569 80.5836 17.733 79.88 17.72ZM79.88 16.01C80.1306 16.0124 80.379 15.9629 80.6095 15.8649C80.8401 15.7668 81.048 15.6221 81.22 15.44C81.4262 15.2043 81.5836 14.93 81.6832 14.6331C81.7828 14.3361 81.8225 14.0224 81.8 13.71C81.8243 13.4005 81.7854 13.0894 81.6857 12.7954C81.586 12.5015 81.4276 12.2308 81.22 12C81.0537 11.8139 80.8504 11.6645 80.6231 11.5612C80.3959 11.4579 80.1496 11.403 79.9 11.4C79.6447 11.398 79.3918 11.4495 79.1576 11.5511C78.9234 11.6527 78.713 11.8022 78.54 11.99C78.1405 12.4698 77.9464 13.0879 78 13.71C77.9579 14.3372 78.1584 14.9565 78.56 15.44C78.7307 15.6179 78.9357 15.7592 79.1626 15.8555C79.3895 15.9517 79.6336 16.0009 79.88 16V16.01Z" fill="white"/>
<path d="M71.3101 17.54V11.54H70.3101V9.87H71.3101V9C71.2698 8.63634 71.3108 8.26827 71.4301 7.92238C71.5494 7.5765 71.7441 7.26145 72.0001 7C72.5533 6.58856 73.2313 6.38021 73.9201 6.41H74.7701V8.1H74.2301C73.9699 8.06844 73.7078 8.14026 73.5001 8.3C73.4212 8.39342 73.3619 8.50179 73.3258 8.61862C73.2897 8.73545 73.2776 8.85836 73.2901 8.98V9.87H74.9401V11.53H73.2901V17.53L71.3101 17.54Z" fill="white"/>
<path d="M67.86 17.54C67.1738 17.5866 66.4924 17.3959 65.93 17C65.6621 16.7271 65.4584 16.3979 65.3338 16.0364C65.2093 15.6748 65.167 15.29 65.21 14.91V11.53H63.89V9.87H65.21L65.44 7.87H67.18V9.87H69.25V11.53H67.18V14.88C67.1644 15.018 67.1776 15.1577 67.2189 15.2903C67.2603 15.4228 67.3287 15.5453 67.42 15.65C67.6656 15.8097 67.9586 15.8803 68.25 15.85H69.25V17.54H67.86Z" fill="white"/>
<path d="M58.28 17.72C57.7233 17.7423 57.169 17.6363 56.66 17.41C56.2817 17.2316 55.9628 16.9483 55.7411 16.5936C55.5195 16.239 55.4045 15.8281 55.41 15.41C55.4001 15.0749 55.4703 14.7423 55.6146 14.4397C55.759 14.1371 55.9733 13.8732 56.24 13.67C56.9773 13.1793 57.8565 12.9472 58.74 13.01H60.69V12.83C60.7095 12.615 60.679 12.3985 60.6009 12.1973C60.5228 11.996 60.3993 11.8156 60.24 11.67C59.9267 11.4168 59.5325 11.2854 59.13 11.3C58.7587 11.2885 58.3927 11.3896 58.08 11.59C57.9328 11.6804 57.8067 11.8012 57.7101 11.9444C57.6135 12.0875 57.5487 12.2497 57.52 12.42H55.59C55.6373 11.9029 55.8316 11.4102 56.15 11C56.4786 10.5654 56.9121 10.2214 57.41 10C57.9596 9.76561 58.5525 9.64975 59.15 9.66C60.0816 9.60639 61.0002 9.89837 61.73 10.48C62.0483 10.7733 62.2977 11.1334 62.4602 11.5346C62.6227 11.9357 62.6944 12.3679 62.67 12.8V17.51H61L60.8 16.3C60.5536 16.7102 60.2102 17.0536 59.8 17.3C59.3454 17.5859 58.8168 17.732 58.28 17.72ZM58.73 16.18C58.9699 16.1866 59.2083 16.1398 59.428 16.0429C59.6476 15.9461 59.843 15.8016 60 15.62C60.3278 15.2307 60.5362 14.755 60.6 14.25H59C58.6009 14.2104 58.2006 14.3131 57.87 14.54C57.7645 14.6238 57.6792 14.7302 57.6204 14.8514C57.5616 14.9725 57.5306 15.1053 57.53 15.24C57.5259 15.374 57.5548 15.507 57.614 15.6273C57.6733 15.7476 57.7612 15.8516 57.87 15.93C58.1239 16.1002 58.4244 16.1875 58.73 16.18Z" fill="white"/>
<path d="M46.24 17.54V6.41H48.24V11.05C48.4793 10.6343 48.8243 10.2893 49.24 10.05C49.705 9.79441 50.2295 9.66673 50.76 9.68C51.1771 9.65125 51.5953 9.71728 51.9832 9.87315C52.3711 10.029 52.7187 10.2707 53 10.58C53.5718 11.3327 53.8524 12.2668 53.79 13.21V17.54H51.79V13.4C51.8265 12.8632 51.6859 12.3293 51.39 11.88C51.2433 11.6991 51.0544 11.5571 50.8399 11.4664C50.6254 11.3757 50.3919 11.3392 50.16 11.36C49.9004 11.3525 49.6422 11.4004 49.4026 11.5004C49.1629 11.6004 48.9473 11.7502 48.77 11.94C48.3884 12.3983 48.1954 12.9846 48.23 13.58V17.58L46.24 17.54Z" fill="white"/>
<path d="M39.7901 17.72C38.8123 17.7351 37.8485 17.4864 37.0001 17C36.2187 16.5192 35.5908 15.8253 35.1901 15C34.7562 14.0888 34.5406 13.089 34.5601 12.08C34.5383 11.0707 34.7541 10.0705 35.1901 9.16C35.5846 8.33047 36.2139 7.63504 37.0001 7.16C37.8518 6.66485 38.8254 6.41885 39.8101 6.45C40.9533 6.40976 42.0757 6.76272 42.9901 7.45C43.8429 8.11157 44.4029 9.08073 44.5501 10.15H42.3601C42.2428 9.60417 41.9342 9.11826 41.4901 8.78C40.9882 8.41819 40.378 8.2383 39.7601 8.27C39.318 8.24626 38.8764 8.32404 38.4691 8.49738C38.0617 8.67072 37.6995 8.93501 37.4101 9.27C36.8058 10.0741 36.5048 11.0657 36.5601 12.07C36.5063 13.071 36.8073 14.059 37.4101 14.86C37.9294 15.3973 38.6152 15.7431 39.356 15.8412C40.0967 15.9392 40.8489 15.7837 41.4901 15.4C41.9295 15.0835 42.2388 14.6178 42.3601 14.09H44.5301C44.4665 14.6175 44.2985 15.1271 44.0358 15.589C43.7731 16.0508 43.421 16.4557 43.0001 16.78C42.0672 17.4474 40.9356 17.7788 39.7901 17.72Z" fill="white"/>
</g>
<defs>
<clipPath id="clip0_7_3">
<rect width="104.29" height="19.62" fill="white" transform="translate(0 2)"/>
</clipPath>
</defs>
</svg>
