<svg width="105" height="20" viewBox="0 0 105 20" fill="none" xmlns="http://www.w3.org/2000/svg">
<g clip-path="url(#clip0_7_46)">
<path fill-rule="evenodd" clip-rule="evenodd" d="M23 11.74L24 6.32C24.1404 5.53966 24.1062 4.73793 23.9 3.97237C23.6937 3.20681 23.3205 2.49642 22.8071 1.89221C22.2937 1.28801 21.6529 0.804979 20.9307 0.477817C20.2085 0.150655 19.4228 -0.0125228 18.63 5.15371e-07H7.12002C5.87651 -0.00103999 4.67162 0.431933 3.71319 1.22423C2.75476 2.01654 2.10289 3.11848 1.87002 4.34L0.0800204 14.1C-0.0417844 14.7774 -0.0130235 15.4732 0.164262 16.1382C0.341548 16.8032 0.663015 17.421 1.10585 17.9479C1.54869 18.4747 2.10204 18.8976 2.72665 19.1866C3.35126 19.4755 4.03181 19.6235 4.72002 19.62H26.49L23 11.74ZM4.76002 16.74C4.49626 16.7453 4.23468 16.6912 3.99464 16.5818C3.7546 16.4723 3.54224 16.3103 3.37325 16.1077C3.20427 15.9051 3.08299 15.6671 3.01838 15.4114C2.95378 15.1556 2.9475 14.8885 3.00002 14.63L4.77002 4.87C4.87269 4.32185 5.16381 3.82687 5.59298 3.47075C6.02215 3.11463 6.56234 2.9198 7.12002 2.92H18.63C18.9894 2.91705 19.345 2.99353 19.6714 3.14396C19.9978 3.2944 20.2869 3.51508 20.5181 3.79023C20.7493 4.06537 20.9169 4.3882 21.0088 4.73563C21.1008 5.08305 21.1148 5.4465 21.05 5.8L19.89 12.1L22 16.7L4.76002 16.74Z" fill="#F24942"/>
<path fill-rule="evenodd" clip-rule="evenodd" d="M7.92997 9.72H7.93997L7.58997 11.61H11.21L11.54 9.72H15.78L16.21 7.36H8.35997L7.92997 9.72Z" fill="#F24942"/>
<path d="M91.7 15.54V7.87H93.44L93.61 8.87C93.8667 8.49969 94.21 8.19762 94.61 7.99C95.0404 7.77374 95.5187 7.67051 96 7.69C96.5072 7.65245 97.0145 7.76165 97.4613 8.00458C97.9082 8.24751 98.2757 8.61389 98.52 9.06C98.8016 8.64007 99.183 8.2965 99.63 8.06C100.105 7.81117 100.634 7.68403 101.17 7.69C101.596 7.66545 102.023 7.73214 102.421 7.88562C102.819 8.0391 103.18 8.27584 103.48 8.58C104.06 9.32879 104.345 10.2649 104.28 11.21V15.54H102.28V11.4C102.313 10.8663 102.18 10.3355 101.9 9.88C101.765 9.70338 101.589 9.56327 101.386 9.47244C101.183 9.38161 100.961 9.34295 100.74 9.36C100.493 9.35056 100.248 9.39795 100.022 9.49852C99.797 9.59909 99.5977 9.75014 99.44 9.94C99.1095 10.42 98.9541 10.999 99 11.58V15.58H97V11.4C97.0326 10.8663 96.8999 10.3355 96.62 9.88C96.4789 9.703 96.2968 9.5631 96.0894 9.47248C95.882 9.38186 95.6557 9.34325 95.43 9.36C95.185 9.3521 94.9414 9.40024 94.7178 9.50076C94.4943 9.60127 94.2966 9.7515 94.14 9.94C93.8033 10.4182 93.6377 10.996 93.67 11.58V15.58L91.7 15.54Z" fill="black"/>
<path d="M85.5699 15.54V7.87H87.3299L87.5199 9.31C87.799 8.80747 88.2102 8.39086 88.709 8.10531C89.2079 7.81975 89.7753 7.67613 90.3499 7.69V9.77H89.7899C89.3932 9.76259 88.9989 9.83397 88.6299 9.98C88.2903 10.1085 88.0069 10.3529 87.8299 10.67C87.6202 11.0985 87.5238 11.5736 87.5499 12.05V15.54H85.5699Z" fill="black"/>
<path d="M79.88 15.72C79.1802 15.7279 78.4906 15.552 77.88 15.21C77.299 14.8737 76.8163 14.391 76.48 13.81C76.1315 13.1658 75.9558 12.4423 75.97 11.71C75.9516 10.9792 76.1313 10.257 76.49 9.62C76.8208 9.02959 77.3044 8.5391 77.89 8.2C78.5006 7.85797 79.1902 7.68211 79.89 7.69C80.5908 7.67378 81.2826 7.85018 81.89 8.2C82.4838 8.53188 82.9724 9.02391 83.3 9.62C83.6588 10.257 83.8385 10.9792 83.82 11.71C83.8359 12.4437 83.6564 13.1685 83.3 13.81C82.9657 14.3959 82.4783 14.8798 81.89 15.21C81.2778 15.5569 80.5836 15.733 79.88 15.72ZM79.88 14.01C80.1306 14.0124 80.379 13.9629 80.6095 13.8649C80.8401 13.7668 81.048 13.6221 81.22 13.44C81.4262 13.2043 81.5836 12.93 81.6832 12.6331C81.7828 12.3361 81.8225 12.0224 81.8 11.71C81.8243 11.4005 81.7854 11.0894 81.6857 10.7954C81.586 10.5015 81.4276 10.2308 81.22 10C81.0537 9.81393 80.8504 9.6645 80.6231 9.56121C80.3959 9.45792 80.1496 9.40302 79.9 9.4C79.6447 9.39803 79.3918 9.44951 79.1576 9.55112C78.9234 9.65273 78.713 9.80223 78.54 9.99C78.1405 10.4698 77.9464 11.0879 78 11.71C77.9579 12.3372 78.1584 12.9565 78.56 13.44C78.7307 13.6179 78.9357 13.7592 79.1626 13.8555C79.3895 13.9517 79.6336 14.0009 79.88 14V14.01Z" fill="black"/>
<path d="M71.3101 15.54V9.54H70.3101V7.87H71.3101V7C71.2698 6.63634 71.3108 6.26827 71.4301 5.92238C71.5494 5.5765 71.7441 5.26145 72.0001 5C72.5533 4.58856 73.2313 4.38021 73.9201 4.41H74.7701V6.1H74.2301C73.9699 6.06844 73.7078 6.14026 73.5001 6.3C73.4212 6.39342 73.3619 6.50179 73.3258 6.61862C73.2897 6.73545 73.2776 6.85836 73.2901 6.98V7.87H74.9401V9.53H73.2901V15.53L71.3101 15.54Z" fill="black"/>
<path d="M67.86 15.54C67.1738 15.5866 66.4924 15.3959 65.93 15C65.6621 14.7271 65.4584 14.3979 65.3338 14.0364C65.2093 13.6748 65.167 13.29 65.21 12.91V9.53H63.89V7.87H65.21L65.44 5.87H67.18V7.87H69.25V9.53H67.18V12.88C67.1644 13.018 67.1776 13.1577 67.2189 13.2903C67.2603 13.4228 67.3287 13.5453 67.42 13.65C67.6656 13.8097 67.9586 13.8803 68.25 13.85H69.25V15.54H67.86Z" fill="black"/>
<path d="M58.28 15.72C57.7233 15.7423 57.169 15.6363 56.66 15.41C56.2817 15.2316 55.9628 14.9483 55.7411 14.5936C55.5195 14.239 55.4045 13.8281 55.41 13.41C55.4001 13.0749 55.4703 12.7423 55.6146 12.4397C55.759 12.1371 55.9733 11.8732 56.24 11.67C56.9773 11.1793 57.8565 10.9472 58.74 11.01H60.69V10.83C60.7095 10.615 60.679 10.3985 60.6009 10.1973C60.5228 9.99603 60.3993 9.81558 60.24 9.67C59.9267 9.41685 59.5325 9.28544 59.13 9.3C58.7587 9.28847 58.3927 9.38957 58.08 9.59C57.9328 9.68037 57.8067 9.8012 57.7101 9.94436C57.6135 10.0875 57.5487 10.2497 57.52 10.42H55.59C55.6373 9.90292 55.8316 9.41018 56.15 9C56.4786 8.56544 56.9121 8.22137 57.41 8C57.9596 7.76561 58.5525 7.64975 59.15 7.66C60.0816 7.60639 61.0002 7.89837 61.73 8.48C62.0483 8.77327 62.2977 9.13342 62.4602 9.53456C62.6227 9.9357 62.6944 10.3679 62.67 10.8V15.51H61L60.8 14.3C60.5536 14.7102 60.2102 15.0536 59.8 15.3C59.3454 15.5859 58.8168 15.732 58.28 15.72ZM58.73 14.18C58.9699 14.1866 59.2083 14.1398 59.428 14.0429C59.6476 13.9461 59.843 13.8016 60 13.62C60.3278 13.2307 60.5362 12.755 60.6 12.25H59C58.6009 12.2104 58.2006 12.3131 57.87 12.54C57.7645 12.6238 57.6792 12.7302 57.6204 12.8514C57.5616 12.9725 57.5306 13.1053 57.53 13.24C57.5259 13.374 57.5548 13.507 57.614 13.6273C57.6733 13.7476 57.7612 13.8516 57.87 13.93C58.1239 14.1002 58.4244 14.1875 58.73 14.18Z" fill="black"/>
<path d="M46.24 15.54V4.41H48.24V9.05C48.4793 8.63433 48.8243 8.28933 49.24 8.05C49.705 7.79441 50.2295 7.66673 50.76 7.68C51.1771 7.65125 51.5953 7.71728 51.9832 7.87315C52.3711 8.02901 52.7187 8.27067 53 8.58C53.5718 9.33274 53.8524 10.2668 53.79 11.21V15.54H51.79V11.4C51.8265 10.8632 51.6859 10.3293 51.39 9.88C51.2433 9.69911 51.0544 9.55707 50.8399 9.46639C50.6254 9.37571 50.3919 9.33917 50.16 9.36C49.9004 9.35252 49.6422 9.40037 49.4026 9.50037C49.1629 9.60037 48.9473 9.75023 48.77 9.94C48.3884 10.3983 48.1954 10.9846 48.23 11.58V15.58L46.24 15.54Z" fill="black"/>
<path d="M39.79 15.72C38.8122 15.7351 37.8483 15.4864 37 15C36.2186 14.5192 35.5907 13.8253 35.19 13C34.7561 12.0888 34.5404 11.089 34.56 10.08C34.5382 9.07074 34.754 8.0705 35.19 7.16C35.5844 6.33047 36.2138 5.63504 37 5.16C37.8517 4.66485 38.8253 4.41885 39.81 4.45C40.9532 4.40976 42.0756 4.76272 42.99 5.45C43.8428 6.11157 44.4028 7.08073 44.55 8.15H42.36C42.2427 7.60417 41.9341 7.11826 41.49 6.78C40.9881 6.41819 40.3779 6.2383 39.76 6.27C39.3179 6.24626 38.8763 6.32404 38.469 6.49738C38.0616 6.67072 37.6994 6.93501 37.41 7.27C36.8057 8.07409 36.5047 9.06568 36.56 10.07C36.5062 11.071 36.8072 12.059 37.41 12.86C37.9292 13.3973 38.6151 13.7431 39.3558 13.8412C40.0966 13.9392 40.8488 13.7837 41.49 13.4C41.9294 13.0835 42.2387 12.6178 42.36 12.09H44.53C44.4664 12.6175 44.2983 13.1271 44.0357 13.589C43.773 14.0508 43.4209 14.4557 43 14.78C42.0671 15.4474 40.9355 15.7788 39.79 15.72Z" fill="black"/>
</g>
<defs>
<clipPath id="clip0_7_46">
<rect width="104.29" height="19.62" fill="white"/>
</clipPath>
</defs>
</svg>
